<?xml version="1.0" encoding="UTF-8"?>
<svg id="Layer_1" data-name="Layer 1" xmlns="http://www.w3.org/2000/svg" viewBox="0 0 841.89 595.28">
  <defs>
    <style>
      .cls-1 {
        fill: #fff;
        stroke-width: 0px;
      }
    </style>
  </defs>
  <path class="cls-1" d="m286.8,313.45c2.23,26.35-10.17,36.21-31.69,30.52-1.23-.31-2.37-.61-3.45-.93-3.8-1.13-7.14-4.93-7.58-8.56-.51-4.19-1.02-8.37-1.53-12.55-.46-3.79,2.42-6.42,6.4-5.88,8.85,1.29,15.99-.96,14.99-10.73-3.44-33.02-6.88-65.92-10.33-98.69-.44-4.08,2.56-8.36,6.7-9.52,2.76-.76,5.51-1.5,8.28-2.23,4.17-1.11,7.88,1.61,8.27,6.04,3.31,37.39,6.62,74.9,9.92,112.53Zm73.6,37.41c.88,5.71-2.07,10.55-6.18,10.1-2.36-.25-4.71-.51-7.07-.79-3.32-.4-6.31-4.06-7.03-8.54-1.47-9.31-2.96-18.57-4.46-27.78,0,.17.02.34.03.51-6.06-.43-12.12-.91-18.18-1.43-3.4-.28-6.06,2.57-6.24,6.7-.27,6.04-.53,12.05-.79,18.03-.18,4.11-2.78,6.71-6.11,6.1-1.87-.34-3.74-.68-5.61-1.04-4.14-.81-7.71-5.89-7.47-10.68,2.33-46.7,5.09-95.95,8.44-147.31.27-4.2,3.12-7.85,6.74-8.57,6.14-1.21,12.3-2.32,18.49-3.34,3.64-.61,6.93,2.11,7.73,6.39,9.9,52.18,19.17,106.31,27.72,161.64Zm-30.93-60.39c-3.84-21.78-7.78-43.26-11.81-64.37-.12.01-.24.03-.37.04-1.27,21.64-2.43,43-3.52,64.03-.2,4.65,2.75,5.05,6.54,5.14,1.08.03,2.16.05,3.25.08,3.81.1,6.72-.09,5.91-4.92Zm118.53-113.92c-7.35-.48-14.72-.8-22.09-.98-3.77-.09-6.97,3.4-7.5,8.13-3.8,37.27-7.33,74.61-10.62,111.89-.12,0-.27,0-.39,0-3.62-37.3-7.5-74.55-11.63-111.62-.57-4.7-3.8-8.1-7.57-7.91-7.37.36-14.72.86-22.05,1.52-4.16.38-7.37,4.9-7.18,10.03,1.93,54.99,3.85,110.02,5.78,165.09.19,5.14,3.32,9.58,7,9.87,1.57.12,3.14.23,4.71.34,3.68.26,6.57-3.81,6.46-9.05-.61-39.94-1.19-79.9-1.75-119.87.14,0,.27,0,.41-.01,5.11,40.32,9.89,81,14.33,121.83.56,4.68,3.4,8.23,6.69,8.31,3.05.07,6.09.12,9.13.15,3.29.03,6.1-3.44,6.61-8.13,4.31-40.87,8.98-81.75,14.01-122.42.14,0,.28,0,.41,0-.48,40.27-.96,80.55-1.44,120.82-.06,5.27,2.88,9.48,6.55,9.34,2.07-.08,4.13-.16,6.21-.26,3.68-.18,6.77-4.59,6.91-9.8,1.44-55.78,2.88-111.55,4.31-167.3.14-5.2-3.12-9.7-7.29-9.98Zm63.55,88.94c-.01.16-.02.33-.03.49,11.44,5.44,15.01,17.83,13.66,35.37-.37,4.75-.72,9.51-1.09,14.27-2,25.39-13.88,41.31-34.58,44.12-8.65,1.06-17.29,1.94-25.91,2.63-3.69.3-6.54-3.7-6.39-8.89,1.68-55.49,3.35-110.96,5.02-166.4.15-5.19,3.65-9.08,7.79-8.64,9.2.98,18.37,2.19,27.5,3.62,23.95,4.06,33.05,19.24,31.09,44.68-.17,2.22-.33,4.45-.5,6.67-1.3,17.12-6.5,27.51-16.57,32.08Zm-20.54,14.3c-.9,0-1.79-.02-2.68-.03-3.89-.05-7.23,4.03-7.45,9.1-.56,12.4-1.11,24.8-1.67,37.21-.22,5.07,2.63,8.98,6.39,8.69,1.75-.13,3.51-.26,5.27-.4,7.08-.58,11.18-5.19,11.98-18.1.31-5.06.62-10.12.93-15.18,1-16.13-2.85-21.16-12.77-21.29Zm4.57-72.43c-1.21-.14-2.42-.28-3.62-.42-4.06-.47-7.54,3.29-7.77,8.36-.44,9.81-.88,19.62-1.32,29.43-.22,5.07,2.8,9.3,6.74,9.48.5.02,1.01.05,1.51.07,8.24.37,13.52-3.84,14.37-17.77.19-3.24.38-6.48.58-9.73.75-12.43-2.42-18.42-10.49-19.42Zm98.48,31.57c-2.7,23.33-5.4,46.74-8.09,70.23-2.47,21.06-13.12,39.77-32.1,41.22-18.63,1.42-26.92-8.55-25.05-35,2.11-28.75,4.21-57.45,6.32-86.11,1.85-26.37,13.36-36.84,33.23-33.09,19.32,3.65,28.16,21.84,25.69,42.74Zm-27.59-14.19c-4.43-1.08-7.59,1.91-8.53,11.47-2.4,24.27-4.81,48.6-7.22,72.97-.94,9.6,1.36,12.48,5.68,12.24,5.32-.3,7.36-4.5,8.35-13.52,2.52-23.05,5.04-46.05,7.55-68.98.99-8.97-1.4-13.09-5.83-14.17Z"/>
  <g>
    <path class="cls-1" d="m295.05,382.84c0,1.65,0,3.29,0,4.94,0,2.06,1.74,3.86,3.89,4.01,6.21.45,12.43.85,18.65,1.21,2.15.13,3.9,1.76,3.9,3.65,0,.86,0,1.71,0,2.57,0,1.89-1.73,3.37-3.88,3.31-6.22-.19-12.44-.4-18.66-.63-2.15-.08-3.89,1.51-3.88,3.58,0,3.89,0,7.78.01,11.67,0,2.05-1.74,3.77-3.89,3.83-1.59.04-3.17.09-4.76.13-2.15.07-3.89-1.62-3.89-3.78,0-15.53,0-31.07,0-46.61,0-2.16,1.73-3.6,3.87-3.24,10.86,1.81,21.74,3.35,32.65,4.64,2.15.26,3.89,1.98,3.9,3.86,0,.86,0,1.71,0,2.56,0,1.87-1.73,3.26-3.88,3.07-6.72-.61-13.44-1.29-20.16-2.05-2.14-.25-3.88,1.21-3.88,3.28Z"/>
    <path class="cls-1" d="m338.5,416.61c-.04-13.06-.07-26.12-.11-39.18,0-1.81,1.74-3.12,3.89-2.93,1.56.13,3.13.27,4.69.39,2.15.18,3.9,1.73,3.91,3.49.04,12.7.07,25.4.11,38.1,0,1.76-1.74,3.21-3.89,3.25-1.56.02-3.12.05-4.69.08-2.15.04-3.9-1.39-3.91-3.21Z"/>
    <path class="cls-1" d="m408.13,413.97c0,.75,0,1.5,0,2.24,0,1.64-1.74,2.98-3.9,2.99-10.88.03-21.75.1-32.62.22-2.15.03-3.9-1.34-3.91-3.05-.03-12.32-.06-24.64-.09-36.96,0-1.7,1.74-3,3.9-2.88,1.57.08,3.13.15,4.7.23,2.16.1,3.91,1.53,3.91,3.21.02,9.33.04,18.65.05,27.98,0,1.68,1.75,3.04,3.91,3.04,6.72,0,13.43.01,20.15.01,2.15,0,3.9,1.33,3.9,2.98Z"/>
    <path class="cls-1" d="m484.77,378.02c-.04,12.84-.07,25.68-.11,38.52,0,1.78-1.75,3.2-3.91,3.16-1.51-.02-3.02-.05-4.53-.07-2.15-.04-3.89-1.46-3.89-3.2.01-5.65.03-11.3.05-16.95,0-3.4-5.74-4.19-7.46-1.1-1.25,3.77-2.5,7.51-3.74,11.23-.63,1.11-2.03,1.83-3.57,1.83-3.01,0-6.02,0-9.02,0-1.54,0-2.94-.7-3.56-1.79-1.26-3.64-2.52-7.27-3.78-10.88-1.71-2.95-7.47-1.94-7.47,1.29,0,5.39-.01,10.77-.02,16.16,0,1.65-1.75,2.98-3.9,2.98-1.48,0-2.97,0-4.45-.01-2.15,0-3.9-1.34-3.9-2.99,0-11.87,0-23.75.01-35.62,0-1.64,1.75-2.99,3.91-3.02,4.35-.05,8.7-.14,13.05-.25,1.55-.04,2.95.62,3.57,1.69,2.52,4.32,5.04,8.66,7.55,13.03,1.37,2.38,5.77,2.29,7.14-.19,2.51-4.53,5.03-9.12,7.55-13.77.63-1.16,2.03-1.97,3.58-2.06,4.34-.27,8.68-.57,13.02-.91,2.15-.17,3.9,1.13,3.89,2.91Z"/>
    <path class="cls-1" d="m524.01,370c14.87-2.13,20.77-.16,22.24,8.71.39,2.33-1.42,4.71-3.83,4.96-1.56.17-3.12.33-4.68.49-1.68.17-3.25-.67-3.71-2.16-.86-2.78-3.67-3.34-11.07-2.54-8.14.87-10.38,2.25-10.39,6.23-.01,4.96,2.55,5.04,14.04,4.73,16.28-.51,21.29,1.05,21.29,13.84v1.84c0,11.61-6.15,15.54-22.62,15.02-.61-.01-1.23-.04-1.84-.05-15.46-.44-21.5-3.42-22.9-11.47-.35-1.99,1.52-3.8,3.87-3.85,1.52-.03,3.04-.06,4.56-.09,1.76-.03,3.4.9,3.88,2.39.9,2.79,3.82,3.7,11.56,3.68,8.63-.02,11.03-1.33,11.03-5.71,0-5.06-2.39-5.56-13.49-5.55-16.38.01-21.89-1.84-21.86-12.7,0-.53,0-1.05,0-1.58.02-9.73,6.28-13.81,22.07-15.95.61-.08,1.22-.17,1.84-.25Z"/>
  </g>
</svg>